<?xml version="1.0" encoding="UTF-8" standalone="no"?>
<svg
   width="219.3"
   height="122.5"
   version="1.1"
   id="svg1"
   sodipodi:docname="Honda.svg"
   inkscape:version="1.3 (0e150ed6c4, 2023-07-21)"
   inkscape:export-filename="Honda_moja.svg"
   inkscape:export-xdpi="96"
   inkscape:export-ydpi="96"
   xmlns:inkscape="http://www.inkscape.org/namespaces/inkscape"
   xmlns:sodipodi="http://sodipodi.sourceforge.net/DTD/sodipodi-0.dtd"
   xmlns="http://www.w3.org/2000/svg"
   xmlns:svg="http://www.w3.org/2000/svg">
  <defs
     id="defs1" />
  <sodipodi:namedview
     id="namedview1"
     pagecolor="#ffffff"
     bordercolor="#000000"
     borderopacity="0.25"
     inkscape:showpageshadow="2"
     inkscape:pageopacity="0.0"
     inkscape:pagecheckerboard="0"
     inkscape:deskcolor="#d1d1d1"
     showgrid="false"
     inkscape:zoom="8"
     inkscape:cx="46.5625"
     inkscape:cy="72.3125"
     inkscape:window-width="3840"
     inkscape:window-height="2066"
     inkscape:window-x="-11"
     inkscape:window-y="-11"
     inkscape:window-maximized="1"
     inkscape:current-layer="layer1"
     inkscape:clip-to-page="true" />
  <g
     id="g1"
     style="display:none;stroke-width:4.15748;stroke-dasharray:none"
     sodipodi:insensitive="true">
    <title
       id="title1">Layer 1</title>
    <path
       id="svg_1"
       d="m 31.778126,146.25 4.200001,0.5 c 1.899998,0.2 2.099998,1.8 2.099998,2.8 v 4.9 H 18.778126 v -4.9 c 0,-1 0.199999,-2.6 2.099998,-2.8 l 4.200001,-0.5 v -4.2 h -25 v 4.2 l 4.200001,0.5 c 1.9,0.2 2.099998,1.8 2.099998,2.8 v 16.2 c 0,1 -0.199999,2.60001 -2.099998,2.8 l -4.200001,0.5 v 4.2 h 25 v -4.2 l -4.200001,-0.5 c -1.9,-0.19999 -2.099998,-1.8 -2.099998,-2.8 v -4.89999 H 37.978127 V 165.75 c 0,1 -0.200001,2.60001 -2.100002,2.8 l -4.200001,0.5 v 4.2 h 25 v -4.2 l -4.199997,-0.5 c -1.900002,-0.19999 -2.100002,-1.8 -2.100002,-2.8 v -16.2 c 0,-1 0.200001,-2.6 2.100002,-2.8 l 4.199997,-0.5 v -4.2 h -25 v 4.2 z"
       style="stroke-width:4.15748;stroke-dasharray:none" />
    <path
       id="svg_2"
       d="m 198.27812,142.05 h -30.8 v 4.2 l 3.70001,0.39999 c 1.29999,0.20002 2.2,0.70002 2.2,2.5 v 16.5 c 0,1 -0.2,2.60001 -2.10001,2.80001 l -4.2,0.5 v 4.19999 h 31.2 c 11.2,0 20.40001,-4.5 20.40001,-15.59999 0,-11.09999 -9.20001,-15.5 -20.40001,-15.5 m -2.3,25.2 h -10.5 v -19.2 h 10.5 c 6.2,0 8.3,2.9 8.3,9.59999 0,6.60001 -2.09999,9.60001 -8.3,9.60001"
       style="stroke-width:4.15748;stroke-dasharray:none" />
    <path
       id="svg_3"
       d="m 271.07812,168.55 c -2,-0.19999 -2.6,-1.5 -3.20001,-2.40001 l -14.39999,-22 c -1,-1.59999 -1.79999,-2.09999 -3.29999,-2.09999 h -23.60001 v 4.2 l 5.7,0.60001 c 0.8,0.1 1.90001,1.19999 1,2.59999 l -10.7,17.3 c -0.39999,0.7 -1,1.5 -2.19999,1.7 l -4.2,0.5 v 4.19999 h 19.89999 V 168.95 l -3.39999,-0.30001 c -1.5,-0.19999 -2.3,-1.19999 -1.5,-2.39999 l 1.59999,-2.60001 h 19.2 l 1.39999,2.10001 c 1.30002,1.89999 -0.29999,2.7 -1.69998,2.8 l -3.5,0.4 v 4.19999 h 27 V 168.95 Z m -35,-10.40001 5.9,-9.6 6.30002,9.6 z"
       style="stroke-width:4.15748;stroke-dasharray:none" />
    <path
       id="svg_4"
       d="m 145.17813,146.25 4.2,0.5 c 1.90001,0.2 2.1,1.8 2.1,2.8 v 15.59999 l -16.5,-21.79998 c -0.69999,-1 -1.39999,-1.30001 -3.19999,-1.30001 h -21.4 v 4.2 l 4.19999,0.5 c 1.9,0.2 2.1,1.8 2.1,2.8 v 16.2 c 0,1 -0.2,2.60001 -2.1,2.8 l -4.19999,0.5 v 4.2 h 19.99999 v -4.2 l -4.2,-0.5 c -1.89999,-0.19999 -2.09999,-1.8 -2.09999,-2.8 v -15.60001 l 16.5,21.70002 c 0.79999,1 1.39999,1.29998 3.2,1.29998 h 0.19999 15 V 149.45 c 0,-1 0.2,-2.59999 2.10001,-2.80001 l 4.2,-0.5 V 141.95 h -19.90001 z"
       style="stroke-width:4.15748;stroke-dasharray:none" />
    <path
       fill="#000000"
       id="svg_5"
       d="m 83.478127,140.95 c -20.300003,0 -25.5,8.90001 -25.5,16.6 0,7.7 5.199997,16.7 25.5,16.7 20.299993,0 25.500003,-8.89999 25.500003,-16.60001 0,-7.79998 -5.20001,-16.69999 -25.500003,-16.69999 m 0,27.40001 c -7.900002,0 -11.099998,-3.30001 -11.099998,-10.7 0,-7.39999 3.299995,-10.7 11.099998,-10.7 7.900002,0 11.099998,3.30001 11.099998,10.7 0,7.39999 -3.199997,10.7 -11.099998,10.7"
       style="stroke-width:4.15748;stroke-dasharray:none" />
    <path
       fill="#000000"
       id="svg_6"
       d="m 172.17813,10.549999 c -3.39999,15.299999 -4.8,22.400002 -7.59999,33.400002 -2.70001,10.600002 -4.8,20.499996 -8.40001,25.299999 -3.59999,4.900002 -8.5,5.900002 -11.8,6.300003 -1.7,0.199997 -3,0.299995 -6.7,0.299995 -3.7,0 -5,-0.1 -6.7,-0.299995 -3.3,-0.400002 -8.19999,-1.400002 -11.8,-6.300003 -3.59999,-4.800003 -5.7,-14.699997 -8.29999,-25.299999 -2.80001,-11.100002 -4.2,-18.100002 -7.6,-33.400002 0,0 -3.400004,0.1 -4.900004,0.200001 -2.099998,0.1 -3.699997,0.299999 -5.400002,0.5 0,0 2,31.5 2.900002,44.900002 0.900002,14 2.599998,37.699997 4.099998,55.599998 0,0 2.900006,0.5 7.700006,0.7 5,0.3 7.29999,0.3 7.29999,0.3 2.10001,-7.9 4.60001,-18.800003 7.5,-23.5 2.4,-3.800003 6,-4.199997 8.10001,-4.5 3.2,-0.400002 6,-0.5 7.2,-0.5 v 0 0 c 1.3,0 4,0 7.19999,0.5 2.10001,0.300003 5.7,0.699997 8.10001,4.5 2.89999,4.699997 5.5,15.6 7.5,23.5 0,0 2.2,0 7.2,-0.3 4.8,-0.3 7.69999,-0.7 7.69999,-0.7 1.5,-17.900002 3.2,-41.5 4.10001,-55.599998 C 180.47813,42.849999 182.47813,11.25 182.47813,11.25 c -1.69999,-0.200001 -3.39999,-0.4 -5.39999,-0.5 -1.50001,-0.1 -4.90001,-0.200001 -4.90001,-0.200001"
       style="stroke-width:4.15748;stroke-dasharray:none" />
    <path
       fill="#000000"
       id="svg_7"
       d="M 211.87813,29.150002 C 209.87813,9.15 196.47812,4.950001 184.77812,2.95 c -5.89999,-1 -16.39999,-1.8 -23.09999,-2.099999 -5.90001,-0.400001 -19.70001,-0.6 -23.90001,-0.6 -4.2,0 -18,0.2 -23.89999,0.6 C 107.17812,1.15 96.678123,1.95 90.778122,2.95 79.078125,4.950001 65.678124,9.15 63.678124,29.150002 c -0.599998,5.5 -0.699997,12.599998 -0.599998,20.199997 0.199997,12.700005 1.300003,21.200005 1.900002,27.200005 0.400002,4.099998 2.099998,16.299995 4.299995,22.599998 3,8.699998 5.700005,11.199998 8.900002,13.799998 5.800003,4.69999 15.400002,6.19999 17.400002,6.6 10.800003,1.9 32.600003,2.30001 42.300003,2.30001 9.59999,0 31.5,-0.30001 42.3,-2.30001 2,-0.40001 11.59999,-1.8 17.4,-6.6 3.19999,-2.6 5.89999,-5.1 8.89999,-13.799998 2.20001,-6.300003 3.90001,-18.599998 4.3,-22.599998 0.60001,-5.900002 1.7,-14.5 1.90001,-27.200005 -0.1,-7.699997 -0.3,-14.799999 -0.8,-20.199997 M 204.47812,62.75 c -1.2,16 -2.60001,25.599998 -4.60001,32.5 -1.8,6.1 -4,10.1 -7.19999,13 -5.4,4.9 -12.80001,5.9 -17.2,6.6 -9.40001,1.4 -25.3,1.9 -37.7,1.9 -12.5,0 -28.30001,-0.5 -37.7,-1.9 -4.400003,-0.7 -11.800004,-1.7 -17.200006,-6.6 -3.199997,-2.9 -5.400002,-7 -7.199997,-13 -2,-6.900002 -3.5,-16.5 -4.599998,-32.5 -0.700005,-9.599998 -0.600006,-25.200001 0.5,-33.599998 C 73.078127,16.55 79.278124,10.25 92.578127,7.950001 98.778124,6.850001 107.17812,6.049999 115.07813,5.65 c 6.39999,-0.4 16.8,-0.6 22.69999,-0.6 5.80001,-0.099998 16.30001,0.200001 22.60001,0.6 7.89999,0.4 16.3,1.200001 22.5,2.300001 13.3,2.4 19.5,8.699999 21.09999,21.200001 1.10001,8.299999 1.20001,23.900002 0.5,33.599998"
       style="stroke-width:4.15748;stroke-dasharray:none" />
  </g>
  <g
     inkscape:groupmode="layer"
     id="layer1"
     inkscape:label="obris"
     style="display:inline;stroke-width:15.742;stroke-dasharray:none">
    <path
       id="path4"
       style="display:inline;fill:#000000;fill-opacity:1;stroke:none;stroke-width:0.25;stroke-dasharray:none;stroke-opacity:1"
       d="M 137.03516,0.3046875 C 130.99632,0.29431971 125.57103,0.37652371 120.90625,0.53125 105.61489,1.0384498 94.709965,2.1561002 87.078125,3.6484375 76.939566,5.6309412 70.651638,10.454994 67.15625,16.875 c -4.477866,8.224528 -4.003828,20.656461 -4.0625,28.945312 -0.116836,16.505877 2.454698,40.467994 5.228516,50.197266 2.886419,10.124222 5.343035,12.826972 8.572265,15.818362 9.694852,8.98079 29.864599,9.2548 50.681639,9.9375 2.03999,0.0669 25.24807,0.26676 41.03516,-0.89063 10.97303,-0.80445 18.19447,-2.18261 24.05469,-4.90039 3.50955,-1.62762 9.29351,-5.38068 12.02734,-12.28125 1.10864,-2.79838 3.61208,-7.622914 6.07226,-27.162108 1.68478,-13.380481 2.21106,-25.576487 1.70118,-37.730468 -0.27398,-6.530742 -0.64154,-11.941 -1.13282,-13.697266 C 210.60669,22.511298 208.70865,9.0367882 191.61133,4.4003906 185.92786,2.8591675 174.89351,1.179107 156.84766,0.6328125 149.72615,0.4172263 143.074,0.31505529 137.03516,0.3046875 Z m 7.06836,4.6660156 c 21.53907,0.2031365 39.98769,2.6321394 45.32421,4.6738281 7.86439,3.0088118 12.09289,8.1522838 13.79883,15.3222658 2.51813,10.583576 2.68292,49.319986 -3.6582,71.234375 -3.46622,11.978948 -10.33371,14.925908 -14.23828,16.400388 -8.81939,3.33046 -30.9384,4.30598 -52.65235,4.14258 -34.614311,-0.26049 -45.010619,-3.5784 -50.265621,-8.89258 -2.956241,-2.98951 -4.91184,-7.17376 -6.482421,-11.751951 C 72.624651,86.465542 70.606718,61.775373 70.660156,52.240234 70.764638,33.597214 71.379187,23.721169 75.095703,17.775391 81.63949,7.3064726 97.640863,5.8392872 134.71289,5.0273438 c 3.17396,-0.069515 6.31361,-0.08566 9.39063,-0.056641 z m 28.12109,5.5468749 c -2.68892,11.557618 -10.08707,47.254245 -14.07617,55.375 -1.19151,2.425587 -2.6204,6.134877 -9.25,8.691406 -3.41359,1.51822 -18.89819,2.21621 -24.31446,-0.779296 -0.22456,-0.124194 -5.2739,-1.992114 -8.13281,-9.589844 C 113.40349,56.115456 107.73628,31.204528 103.23828,10.5625 97.434644,10.600222 93,11.267578 93,11.267578 c 0,0 4.076501,66.906948 6.966797,100.542972 1.984043,0.29234 10.227753,0.99766 15.027343,0.88476 1.11211,-3.78475 4.68667,-19.855362 7.9082,-24.062498 1.29668,-1.693372 2.82425,-2.544705 3.9336,-3.041015 1.82616,-0.817001 12.27861,-2.074841 19.10156,-0.726563 2.92758,0.578518 5.0007,1.325233 6.80273,3.833985 1.61265,2.02788 3.56792,8.017202 5.1211,13.500001 1.55318,5.48278 2.70312,10.45898 2.70312,10.45898 6.96214,0.12911 14.94336,-0.92968 14.94336,-0.92968 1.53371,-18.190987 5.04954,-67.540404 6.93946,-100.457036 -1.94447,-0.486114 -8.50249,-0.639671 -10.22266,-0.753906 z" />
  </g>
</svg>
