<?xml version="1.0" encoding="UTF-8" standalone="no"?>
<!-- Created with Inkscape (http://www.inkscape.org/) -->

<svg
   width="210mm"
   height="297mm"
   viewBox="0 0 210 297"
   version="1.1"
   id="svg1"
   inkscape:version="1.3 (0e150ed6c4, 2023-07-21)"
   sodipodi:docname="vizitka2_marks.svg"
   xml:space="preserve"
   xmlns:inkscape="http://www.inkscape.org/namespaces/inkscape"
   xmlns:sodipodi="http://sodipodi.sourceforge.net/DTD/sodipodi-0.dtd"
   xmlns="http://www.w3.org/2000/svg"
   xmlns:svg="http://www.w3.org/2000/svg"><sodipodi:namedview
     id="namedview1"
     pagecolor="#ffffff"
     bordercolor="#000000"
     borderopacity="0.25"
     inkscape:showpageshadow="2"
     inkscape:pageopacity="0.0"
     inkscape:pagecheckerboard="0"
     inkscape:deskcolor="#d1d1d1"
     inkscape:document-units="mm"
     showguides="true"
     inkscape:zoom="5.6568542"
     inkscape:cx="194.1892"
     inkscape:cy="165.72815"
     inkscape:window-width="3840"
     inkscape:window-height="2066"
     inkscape:window-x="2869"
     inkscape:window-y="-11"
     inkscape:window-maximized="1"
     inkscape:current-layer="g2"><sodipodi:guide
       position="63.537312,287"
       orientation="0,1"
       id="guide4"
       inkscape:locked="false"
       inkscape:label=""
       inkscape:color="rgb(0,134,229)" /><sodipodi:guide
       position="10,282.54653"
       orientation="-1,0"
       id="guide5"
       inkscape:locked="false"
       inkscape:label=""
       inkscape:color="rgb(0,134,229)" /><sodipodi:guide
       position="105,291.48563"
       orientation="-1,0"
       id="guide6"
       inkscape:locked="false"
       inkscape:label=""
       inkscape:color="rgb(0,134,229)" /><sodipodi:guide
       position="47.423646,222"
       orientation="0,1"
       id="guide7"
       inkscape:locked="false"
       inkscape:label=""
       inkscape:color="rgb(0,134,229)" /><sodipodi:guide
       position="15,282"
       orientation="0,1"
       id="guide8"
       inkscape:locked="false"
       inkscape:label=""
       inkscape:color="rgb(0,134,229)" /><sodipodi:guide
       position="15,271.1418"
       orientation="-1,0"
       id="guide9"
       inkscape:locked="false"
       inkscape:label=""
       inkscape:color="rgb(0,134,229)" /><sodipodi:guide
       position="100,275.90299"
       orientation="-1,0"
       id="guide10"
       inkscape:locked="false"
       inkscape:label=""
       inkscape:color="rgb(0,134,229)" /><sodipodi:guide
       position="43.302238,227"
       orientation="0,1"
       id="guide11"
       inkscape:locked="false"
       inkscape:label=""
       inkscape:color="rgb(0,134,229)" /><sodipodi:guide
       position="20,276.79443"
       orientation="-1,0"
       id="guide12"
       inkscape:locked="false"
       inkscape:label=""
       inkscape:color="rgb(0,134,229)" /><sodipodi:guide
       position="95,266.97228"
       orientation="-1,0"
       id="guide13"
       inkscape:locked="false"
       inkscape:label=""
       inkscape:color="rgb(0,134,229)" /><sodipodi:guide
       position="45.275457,277"
       orientation="0,1"
       id="guide14"
       inkscape:locked="false"
       inkscape:label=""
       inkscape:color="rgb(0,134,229)" /><sodipodi:guide
       position="55.939511,232"
       orientation="0,1"
       id="guide15"
       inkscape:locked="false"
       inkscape:label=""
       inkscape:color="rgb(0,134,229)" /><sodipodi:guide
       position="57.5,274.64291"
       orientation="-1,0"
       id="guide2"
       inkscape:locked="false"
       inkscape:label=""
       inkscape:color="rgb(0,134,229)" /><sodipodi:guide
       position="66.182615,254.5"
       orientation="0,1"
       id="guide3"
       inkscape:locked="false"
       inkscape:label=""
       inkscape:color="rgb(0,134,229)" /></sodipodi:namedview><defs
     id="defs1"><rect
       x="99.749999"
       y="224.5"
       width="235.35355"
       height="30.753049"
       id="rect10" /><rect
       x="291"
       y="76.249999"
       width="68.749999"
       height="168.75"
       id="rect8" /><rect
       x="79.249999"
       y="77.999999"
       width="121.35965"
       height="134.04342"
       id="rect6" /><rect
       x="76.999999"
       y="77.249999"
       width="88.249999"
       height="46.75"
       id="rect5" /><rect
       x="75.249999"
       y="75.999999"
       width="80.249999"
       height="69.999999"
       id="rect4" /><rect
       x="75.483648"
       y="76.013978"
       width="84.49926"
       height="68.589357"
       id="rect3" /><rect
       x="79.25"
       y="78"
       width="100.5"
       height="75"
       id="rect6-9" /><rect
       x="99.75"
       y="224.5"
       width="235"
       height="20.5"
       id="rect10-6" /><rect
       x="79.25"
       y="78"
       width="100.5"
       height="75"
       id="rect6-8" /><rect
       x="99.75"
       y="224.5"
       width="235"
       height="20.5"
       id="rect10-5" /></defs><g
     inkscape:label="bleed"
     inkscape:groupmode="layer"
     id="layer1"
     style="display:inline"
     sodipodi:insensitive="true"><rect
       style="fill:#0072ce;fill-opacity:1;stroke-width:0.0661458"
       id="rect7"
       width="95.018661"
       height="65.014923"
       x="9.9945507"
       y="9.9994221" /><rect
       style="fill:#0072ce;fill-opacity:1;stroke-width:0.0661919"
       id="rect11"
       width="84.997818"
       height="54.998524"
       x="15.000448"
       y="14.999609" /></g><g
     inkscape:groupmode="layer"
     id="layer3"
     inkscape:label="content"
     style="display:inline"><text
       xml:space="preserve"
       transform="matrix(0.26458333,0,0,0.26458333,42.447808,-0.93739019)"
       id="text5"
       style="font-style:normal;font-variant:normal;font-weight:normal;font-stretch:normal;font-size:13.3333px;font-family:Nunito;-inkscape-font-specification:Nunito;text-align:end;white-space:pre;shape-inside:url(#rect6);shape-padding:2.5;display:inline;fill:#ffffff;fill-opacity:1;stroke-width:0.25"
       x="91.445648"
       y="0"><tspan
         x="133.01618"
         y="92.049335"
         id="tspan1">Žiga Kovač&#10;</tspan><tspan
         x="133.96286"
         y="108.71596"
         id="tspan2">Svetovalec&#10;</tspan><tspan
         x="100.65626"
         y="125.38259"
         id="tspan3">T: 031-123-321&#10;</tspan><tspan
         x="101.06955"
         y="142.04921"
         id="tspan4">sales@honda.eu&#10;</tspan></text><text
       xml:space="preserve"
       transform="matrix(0.26458333,0,0,0.26458333,-6.0446249,-2.0513275)"
       id="text10"
       style="font-style:normal;font-variant:normal;font-weight:normal;font-stretch:normal;font-size:12px;font-family:Nunito;-inkscape-font-specification:Nunito;text-align:start;white-space:pre;shape-inside:url(#rect10);shape-padding:0;display:inline;fill:#ffffff;fill-opacity:1;stroke-width:0.25"
       x="124.75781"
       y="0"><tspan
         x="99.75"
         y="234.89443"
         id="tspan5">Post: 8-1 Hon-cho, Wako-shi, Saitama&#10;</tspan><tspan
         x="99.75"
         y="249.89443"
         id="tspan6">Website: https://global.honda/en/</tspan></text><g
       id="g2"
       transform="matrix(0.10077761,0,0,0.10077761,43.563583,35.792332)"
       style="display:inline;fill:#ffffff"><g
         id="g1"
         style="display:inline;fill:#ffffff;fill-opacity:1;stroke-width:4.15748;stroke-dasharray:none"
         transform="translate(-0.078125,-0.25000101)"><title
           id="title1">Layer 1</title></g><g
         id="layer1-5"
         inkscape:label="obris"
         style="display:inline;fill:#ffffff;stroke-width:15.742;stroke-dasharray:none"
         transform="translate(-0.54223769,1.6064498)"><path
           id="path4"
           style="display:inline;fill:#ffffff;fill-opacity:1;stroke:none;stroke-width:0.25;stroke-dasharray:none;stroke-opacity:1"
           d="M 137.03516,0.3046875 C 130.99632,0.29431971 125.57103,0.37652371 120.90625,0.53125 105.61489,1.0384498 94.709965,2.1561002 87.078125,3.6484375 76.939566,5.6309412 70.651638,10.454994 67.15625,16.875 c -4.477866,8.224528 -4.003828,20.656461 -4.0625,28.945312 -0.116836,16.505877 2.454698,40.467994 5.228516,50.197266 2.886419,10.124222 5.343035,12.826972 8.572265,15.818362 9.694852,8.98079 29.864599,9.2548 50.681639,9.9375 2.03999,0.0669 25.24807,0.26676 41.03516,-0.89063 10.97303,-0.80445 18.19447,-2.18261 24.05469,-4.90039 3.50955,-1.62762 9.29351,-5.38068 12.02734,-12.28125 1.10864,-2.79838 3.61208,-7.622914 6.07226,-27.162108 1.68478,-13.380481 2.21106,-25.576487 1.70118,-37.730468 -0.27398,-6.530742 -0.64154,-11.941 -1.13282,-13.697266 C 210.60669,22.511298 208.70865,9.0367882 191.61133,4.4003906 185.92786,2.8591675 174.89351,1.179107 156.84766,0.6328125 149.72615,0.4172263 143.074,0.31505529 137.03516,0.3046875 Z m 7.06836,4.6660156 c 21.53907,0.2031365 39.98769,2.6321394 45.32421,4.6738281 7.86439,3.0088118 12.09289,8.1522838 13.79883,15.3222658 2.51813,10.583576 2.68292,49.319986 -3.6582,71.234375 -3.46622,11.978948 -10.33371,14.925908 -14.23828,16.400388 -8.81939,3.33046 -30.9384,4.30598 -52.65235,4.14258 -34.614311,-0.26049 -45.010619,-3.5784 -50.265621,-8.89258 -2.956241,-2.98951 -4.91184,-7.17376 -6.482421,-11.751951 C 72.624651,86.465542 70.606718,61.775373 70.660156,52.240234 70.764638,33.597214 71.379187,23.721169 75.095703,17.775391 81.63949,7.3064726 97.640863,5.8392872 134.71289,5.0273438 c 3.17396,-0.069515 6.31361,-0.08566 9.39063,-0.056641 z m 28.12109,5.5468749 c -2.68892,11.557618 -10.08707,47.254245 -14.07617,55.375 -1.19151,2.425587 -2.6204,6.134877 -9.25,8.691406 -3.41359,1.51822 -18.89819,2.21621 -24.31446,-0.779296 -0.22456,-0.124194 -5.2739,-1.992114 -8.13281,-9.589844 C 113.40349,56.115456 107.73628,31.204528 103.23828,10.5625 97.434644,10.600222 93,11.267578 93,11.267578 c 0,0 4.076501,66.906948 6.966797,100.542972 1.984043,0.29234 10.227753,0.99766 15.027343,0.88476 1.11211,-3.78475 4.68667,-19.855362 7.9082,-24.062498 1.29668,-1.693372 2.82425,-2.544705 3.9336,-3.041015 1.82616,-0.817001 12.27861,-2.074841 19.10156,-0.726563 2.92758,0.578518 5.0007,1.325233 6.80273,3.833985 1.61265,2.02788 3.56792,8.017202 5.1211,13.500001 1.55318,5.48278 2.70312,10.45898 2.70312,10.45898 6.96214,0.12911 14.94336,-0.92968 14.94336,-0.92968 1.53371,-18.190987 5.04954,-67.540404 6.93946,-100.457036 -1.94447,-0.486114 -8.50249,-0.639671 -10.22266,-0.753906 z M 83.478127,140.95 c -20.300003,0 -25.5,8.90001 -25.5,16.6 0,7.7 5.199997,16.7 25.5,16.7 20.299993,0 25.500003,-8.89999 25.500003,-16.60001 0,-7.79998 -5.20001,-16.69999 -25.500003,-16.69999 m 0,27.40001 c -7.900002,0 -11.099998,-3.30001 -11.099998,-10.7 0,-7.39999 3.299995,-10.7 11.099998,-10.7 7.900002,0 11.099998,3.30001 11.099998,10.7 0,7.39999 -3.199997,10.7 -11.099998,10.7 M 145.17813,146.25 l 4.2,0.5 c 1.90001,0.2 2.1,1.8 2.1,2.8 v 15.59999 l -16.5,-21.79998 c -0.69999,-1 -1.39999,-1.30001 -3.19999,-1.30001 h -21.4 v 4.2 l 4.19999,0.5 c 1.9,0.2 2.1,1.8 2.1,2.8 v 16.2 c 0,1 -0.2,2.60001 -2.1,2.8 l -4.19999,0.5 v 4.2 h 19.99999 v -4.2 l -4.2,-0.5 c -1.89999,-0.19999 -2.09999,-1.8 -2.09999,-2.8 v -15.60001 l 16.5,21.70002 c 0.79999,1 1.39999,1.29998 3.2,1.29998 h 0.19999 15 V 149.45 c 0,-1 0.2,-2.59999 2.10001,-2.80001 l 4.2,-0.5 V 141.95 h -19.90001 z m 125.89999,22.3 c -2,-0.19999 -2.6,-1.5 -3.20001,-2.40001 l -14.39999,-22 c -1,-1.59999 -1.79999,-2.09999 -3.29999,-2.09999 h -23.60001 v 4.2 l 5.7,0.60001 c 0.8,0.1 1.90001,1.19999 1,2.59999 l -10.7,17.3 c -0.39999,0.7 -1,1.5 -2.19999,1.7 l -4.2,0.5 v 4.19999 h 19.89999 V 168.95 l -3.39999,-0.30001 c -1.5,-0.19999 -2.3,-1.19999 -1.5,-2.39999 l 1.59999,-2.60001 h 19.2 l 1.39999,2.10001 c 1.30002,1.89999 -0.29999,2.7 -1.69998,2.8 l -3.5,0.4 v 4.19999 h 27 V 168.95 Z m -35,-10.40001 5.9,-9.6 6.30002,9.6 z m -37.8,-16.09999 h -30.8 v 4.2 l 3.70001,0.39999 c 1.29999,0.20002 2.2,0.70002 2.2,2.5 v 16.5 c 0,1 -0.2,2.60001 -2.10001,2.80001 l -4.2,0.5 v 4.19999 h 31.2 c 11.2,0 20.40001,-4.5 20.40001,-15.59999 0,-11.09999 -9.20001,-15.5 -20.40001,-15.5 m -2.3,25.2 h -10.5 v -19.2 h 10.5 c 6.2,0 8.3,2.9 8.3,9.59999 0,6.60001 -2.09999,9.60001 -8.3,9.60001 m -164.199994,-21 4.200001,0.5 c 1.899998,0.2 2.099998,1.8 2.099998,2.8 v 4.9 H 18.778126 v -4.9 c 0,-1 0.199999,-2.6 2.099998,-2.8 l 4.200001,-0.5 v -4.2 h -25 v 4.2 l 4.200001,0.5 c 1.9,0.2 2.099998,1.8 2.099998,2.8 v 16.2 c 0,1 -0.199999,2.60001 -2.099998,2.8 l -4.200001,0.5 v 4.2 h 25 v -4.2 l -4.200001,-0.5 c -1.9,-0.19999 -2.099998,-1.8 -2.099998,-2.8 v -4.89999 H 37.978127 V 165.75 c 0,1 -0.200001,2.60001 -2.100002,2.8 l -4.200001,0.5 v 4.2 h 25 v -4.2 l -4.199997,-0.5 c -1.900002,-0.19999 -2.100002,-1.8 -2.100002,-2.8 v -16.2 c 0,-1 0.200001,-2.6 2.100002,-2.8 l 4.199997,-0.5 v -4.2 h -25 v 4.2 z" /></g></g></g><g
     inkscape:groupmode="layer"
     id="layer2"
     inkscape:label="crop marks"
     style="display:inline"
     sodipodi:insensitive="true" /><g
     inkscape:groupmode="layer"
     inkscape:label="Printing Marks"
     id="printing-marks"
     sodipodi:insensitive="true"><g
       id="CropMarks"
       inkscape:label="CropMarks"><path
         style="fill:none;stroke:#000000;stroke-width:0.25"
         id="cropTL1"
         d="M 15.000448,13.676692333333333 L 15.000448,3.6766923333333335" /><path
         style="fill:none;stroke:#000000;stroke-width:0.25"
         id="cropTL2"
         d="M 13.677531333333334,14.999609 L 3.6775313333333344,14.999609" /><path
         style="fill:none;stroke:#000000;stroke-width:0.25"
         id="cropTR1"
         d="M 99.998266,13.676692333333333 L 99.998266,3.6766923333333335" /><path
         style="fill:none;stroke:#000000;stroke-width:0.25"
         id="cropTR2"
         d="M 101.32118266666667,14.999609 L 111.32118266666667,14.999609" /><path
         style="fill:none;stroke:#000000;stroke-width:0.25"
         id="cropBL1"
         d="M 15.000448,71.32104966666667 L 15.000448,81.32104966666667" /><path
         style="fill:none;stroke:#000000;stroke-width:0.25"
         id="cropBL2"
         d="M 13.677531333333334,69.998133 L 3.6775313333333344,69.998133" /><path
         style="fill:none;stroke:#000000;stroke-width:0.25"
         id="cropBR1"
         d="M 99.998266,71.32104966666667 L 99.998266,81.32104966666667" /><path
         style="fill:none;stroke:#000000;stroke-width:0.25"
         id="cropBR2"
         d="M 101.32118266666667,69.998133 L 111.32118266666667,69.998133" /></g></g></svg>
